<svg width="200" height="200" viewBox="0 0 200 200" xmlns="http://www.w3.org/2000/svg">
  <!-- Background circle with subtle gradient -->
  <defs>
    <linearGradient id="bgGradient" x1="0%" y1="0%" x2="100%" y2="100%">
      <stop offset="0%" stopColor="#F8F9FA" />
      <stop offset="100%" stopColor="#E9ECEF" />
    </linearGradient>
    <linearGradient id="penGradient" x1="0%" y1="0%" x2="100%" y2="100%">
      <stop offset="0%" stopColor="#5DADE2" />
      <stop offset="50%" stopColor="#3498DB" />
      <stop offset="100%" stopColor="#2E86AB" />
    </linearGradient>
    <linearGradient id="calendarGradient" x1="0%" y1="0%" x2="100%" y2="100%">
      <stop offset="0%" stopColor="#85C1E9" />
      <stop offset="100%" stopColor="#5DADE2" />
    </linearGradient>
    <filter id="shadow" x="-20%" y="-20%" width="140%" height="140%">
      <feDropShadow dx="2" dy="2" stdDeviation="3" floodColor="rgba(0,0,0,0.2)"/>
    </filter>
  </defs>
  
  <!-- Background -->
  <circle cx="100" cy="100" r="95" fill="url(#bgGradient)" stroke="#E9ECEF" strokeWidth="2"/>
  
  <!-- Pen body -->
  <path d="M 45 60 L 35 150 Q 35 155 40 155 L 50 155 Q 55 155 55 150 L 65 60 Q 65 55 60 50 L 50 50 Q 45 55 45 60 Z" 
        fill="url(#penGradient)" 
        filter="url(#shadow)"/>
  
  <!-- Pen tip -->
  <path d="M 45 150 L 55 150 L 50 165 Q 47.5 167 50 167 Q 52.5 167 50 165 Z" 
        fill="#2C3E50"/>
  
  <!-- Pen clip -->
  <rect x="58" y="55" width="8" height="20" rx="4" fill="#34495E"/>
  
  <!-- Calendar body -->
  <rect x="90" y="80" width="80" height="70" rx="8" fill="url(#calendarGradient)" filter="url(#shadow)"/>
  <rect x="95" y="90" width="70" height="55" rx="4" fill="white"/>
  
  <!-- Calendar header -->
  <rect x="95" y="90" width="70" height="15" rx="4" fill="#3498DB"/>
  
  <!-- Calendar rings -->
  <rect x="100" y="75" width="4" height="15" rx="2" fill="#2C3E50"/>
  <rect x="110" y="75" width="4" height="15" rx="2" fill="#2C3E50"/>
  <rect x="146" y="75" width="4" height="15" rx="2" fill="#2C3E50"/>
  <rect x="156" y="75" width="4" height="15" rx="2" fill="#2C3E50"/>
  
  <!-- Calendar grid -->
  <line x1="105" y1="110" x2="155" y2="110" stroke="#E9ECEF" strokeWidth="1"/>
  <line x1="105" y1="120" x2="155" y2="120" stroke="#E9ECEF" strokeWidth="1"/>
  <line x1="105" y1="130" x2="155" y2="130" stroke="#E9ECEF" strokeWidth="1"/>
  <line x1="115" y1="105" x2="115" y2="140" stroke="#E9ECEF" strokeWidth="1"/>
  <line x1="125" y1="105" x2="125" y2="140" stroke="#E9ECEF" strokeWidth="1"/>
  <line x1="135" y1="105" x2="135" y2="140" stroke="#E9ECEF" strokeWidth="1"/>
  <line x1="145" y1="105" x2="145" y2="140" stroke="#E9ECEF" strokeWidth="1"/>
  
  <!-- Calendar dates (orange highlights) -->
  <rect x="107" y="112" width="6" height="6" rx="1" fill="#F39C12"/>
  <rect x="127" y="122" width="6" height="6" rx="1" fill="#E67E22"/>
  <rect x="137" y="112" width="6" height="6" rx="1" fill="#F39C12"/>
  <rect x="147" y="132" width="6" height="6" rx="1" fill="#E67E22"/>
  
  <!-- Sparkle effects -->
  <g fill="#F39C12">
    <path d="M 75 45 L 77 50 L 82 48 L 77 53 L 75 58 L 73 53 L 68 48 L 73 50 Z"/>
    <circle cx="85" cy="35" r="2"/>
    <circle cx="90" cy="45" r="1.5"/>
  </g>
  
  <!-- Handwriting line from pen -->
  <path d="M 50 165 Q 70 160 85 140 Q 95 130 100 125" 
        stroke="#3498DB" 
        strokeWidth="2" 
        fill="none" 
        strokeDasharray="3,2"
        opacity="0.7"/>
</svg> 